<?xml version="1.0" standalone="no"?>
<!DOCTYPE svg PUBLIC "-//W3C//DTD SVG 20010904//EN"
 "http://www.w3.org/TR/2001/REC-SVG-20010904/DTD/svg10.dtd">
<svg version="1.0" xmlns="http://www.w3.org/2000/svg"
 width="270.000000pt" height="270.000000pt" viewBox="0 0 270.000000 270.000000"
 preserveAspectRatio="xMidYMid meet">
<metadata>
Created by potrace 1.14, written by Peter Selinger 2001-2017
</metadata>
<g transform="translate(0.000000,270.000000) scale(0.100000,-0.100000)"
fill="#000000" stroke="none">
<path d="M1474 2650 c-32 -12 -71 -65 -114 -155 -22 -46 -45 -82 -52 -81 -7 1
-33 15 -57 31 -80 54 -163 75 -276 71 -108 -4 -114 -5 -192 -34 -89 -34 -123
-59 -123 -93 0 -17 5 -39 10 -49 9 -16 3 -22 -42 -45 -122 -61 -269 -196 -353
-325 -38 -58 -112 -198 -115 -218 0 -4 -10 -36 -21 -72 -33 -108 -48 -219 -47
-355 1 -234 58 -459 164 -653 35 -65 42 -88 22 -76 -7 4 -8 3 -4 -4 4 -6 12
-9 19 -7 7 2 29 -21 49 -53 39 -60 57 -81 147 -176 31 -32 50 -55 42 -51 -10
6 -12 4 -7 -4 4 -6 11 -9 15 -6 5 2 26 -9 47 -26 134 -106 293 -177 479 -214
17 -3 272 -8 567 -11 454 -4 547 -2 601 10 174 41 312 182 361 369 9 34 14
119 15 242 2 171 4 197 27 272 62 203 75 460 33 653 -35 160 -130 360 -218
460 -111 125 -212 208 -314 256 -34 16 -34 17 -19 44 25 43 6 71 -73 109 -133
65 -297 77 -416 31 -30 -11 -55 -20 -57 -20 -2 0 7 18 19 39 39 69 10 132 -67
144 -16 2 -38 1 -50 -3z"/>
<path d="M10 1095 c0 -8 29 -12 39 -5 9 5 4 8 -13 8 -14 0 -26 -2 -26 -3z"/>
<path d="M78 1093 c7 -3 16 -2 19 1 4 3 -2 6 -13 5 -11 0 -14 -3 -6 -6z"/>
<path d="M325 300 c-5 -7 152 -6 159 1 3 3 -31 5 -75 4 -45 0 -82 -2 -84 -5z"/>
</g>
</svg>
