<svg width="1116" height="201" viewBox="0 0 1116 201" fill="none" xmlns="http://www.w3.org/2000/svg">
<path d="M72.4625 43.325C90.5458 43.325 104.429 46.5333 114.113 52.95C123.796 59.25 128.638 69.6333 128.638 84.1C128.638 98.6833 123.738 109.242 113.938 115.775C104.138 122.192 90.1375 125.4 71.9375 125.4H63.3625V166H36.0625V46.475C42.0125 45.3083 48.3125 44.4917 54.9625 44.025C61.6125 43.5583 67.4458 43.325 72.4625 43.325ZM74.2125 66.6C72.2292 66.6 70.2458 66.6583 68.2625 66.775C66.3958 66.8917 64.7625 67.0083 63.3625 67.125V102.125H71.9375C81.3875 102.125 88.5042 100.842 93.2875 98.275C98.0708 95.7083 100.463 90.925 100.463 83.925C100.463 80.5417 99.8208 77.7417 98.5375 75.525C97.3708 73.3083 95.6208 71.5583 93.2875 70.275C91.0708 68.875 88.3292 67.9417 85.0625 67.475C81.7958 66.8917 78.1792 66.6 74.2125 66.6ZM171.61 105.275C171.61 111.225 172.31 116.592 173.71 121.375C175.226 126.158 177.326 130.3 180.01 133.8C182.81 137.183 186.193 139.808 190.16 141.675C194.126 143.542 198.676 144.475 203.81 144.475C208.826 144.475 213.318 143.542 217.285 141.675C221.368 139.808 224.751 137.183 227.435 133.8C230.235 130.3 232.335 126.158 233.735 121.375C235.251 116.592 236.01 111.225 236.01 105.275C236.01 99.325 235.251 93.9583 233.735 89.175C232.335 84.275 230.235 80.1333 227.435 76.75C224.751 73.25 221.368 70.5667 217.285 68.7C213.318 66.8333 208.826 65.9 203.81 65.9C198.676 65.9 194.126 66.8917 190.16 68.875C186.193 70.7417 182.81 73.425 180.01 76.925C177.326 80.3083 175.226 84.45 173.71 89.35C172.31 94.1333 171.61 99.4417 171.61 105.275ZM264.185 105.275C264.185 115.658 262.61 124.817 259.46 132.75C256.426 140.567 252.226 147.158 246.86 152.525C241.493 157.775 235.076 161.742 227.61 164.425C220.26 167.108 212.326 168.45 203.81 168.45C195.526 168.45 187.71 167.108 180.36 164.425C173.01 161.742 166.593 157.775 161.11 152.525C155.626 147.158 151.31 140.567 148.16 132.75C145.01 124.817 143.435 115.658 143.435 105.275C143.435 94.8917 145.068 85.7917 148.335 77.975C151.601 70.0417 155.976 63.3917 161.46 58.025C167.06 52.6583 173.476 48.6333 180.71 45.95C188.06 43.2667 195.76 41.925 203.81 41.925C212.093 41.925 219.91 43.2667 227.26 45.95C234.61 48.6333 241.026 52.6583 246.51 58.025C251.993 63.3917 256.31 70.0417 259.46 77.975C262.61 85.7917 264.185 94.8917 264.185 105.275ZM319.141 44.725C321.241 48.575 323.633 53.3583 326.316 59.075C329.116 64.675 331.975 70.8 334.891 77.45C337.925 83.9833 340.9 90.6917 343.816 97.575C346.733 104.458 349.475 110.933 352.041 117C354.608 110.933 357.35 104.458 360.266 97.575C363.183 90.6917 366.1 83.9833 369.016 77.45C372.05 70.8 374.908 64.675 377.591 59.075C380.391 53.3583 382.841 48.575 384.941 44.725H409.791C410.958 52.775 412.008 61.8167 412.941 71.85C413.991 81.7667 414.866 92.15 415.566 103C416.383 113.733 417.083 124.525 417.666 135.375C418.366 146.225 418.95 156.433 419.416 166H392.816C392.466 154.217 392 141.383 391.416 127.5C390.833 113.617 389.958 99.6167 388.791 85.5C386.691 90.4 384.358 95.825 381.791 101.775C379.225 107.725 376.658 113.675 374.091 119.625C371.641 125.575 369.25 131.292 366.916 136.775C364.583 142.142 362.6 146.75 360.966 150.6H341.891C340.258 146.75 338.275 142.142 335.941 136.775C333.608 131.292 331.158 125.575 328.591 119.625C326.141 113.675 323.633 107.725 321.066 101.775C318.5 95.825 316.166 90.4 314.066 85.5C312.9 99.6167 312.025 113.617 311.441 127.5C310.858 141.383 310.391 154.217 310.041 166H283.441C283.908 156.433 284.433 146.225 285.016 135.375C285.716 124.525 286.416 113.733 287.116 103C287.933 92.15 288.808 81.7667 289.741 71.85C290.791 61.8167 291.9 52.775 293.066 44.725H319.141ZM639.461 143.775C640.744 143.892 642.203 144.008 643.836 144.125C645.586 144.125 647.628 144.125 649.961 144.125C663.611 144.125 673.703 140.683 680.236 133.8C686.886 126.917 690.211 117.408 690.211 105.275C690.211 92.5583 687.061 82.9333 680.761 76.4C674.461 69.8667 664.486 66.6 650.836 66.6C648.969 66.6 647.044 66.6583 645.061 66.775C643.078 66.775 641.211 66.8917 639.461 67.125V143.775ZM718.386 105.275C718.386 115.775 716.753 124.933 713.486 132.75C710.219 140.567 705.553 147.042 699.486 152.175C693.536 157.308 686.244 161.158 677.611 163.725C668.978 166.292 659.294 167.575 648.561 167.575C643.661 167.575 637.944 167.342 631.411 166.875C624.878 166.525 618.461 165.708 612.161 164.425V46.3C618.461 45.1333 624.994 44.375 631.761 44.025C638.644 43.5583 644.536 43.325 649.436 43.325C659.819 43.325 669.211 44.4917 677.611 46.825C686.128 49.1583 693.419 52.8333 699.486 57.85C705.553 62.8667 710.219 69.2833 713.486 77.1C716.753 84.9167 718.386 94.3083 718.386 105.275ZM776.714 43.325C794.914 43.325 808.856 46.5917 818.539 53.125C828.223 59.5417 833.064 69.575 833.064 83.225C833.064 91.7417 831.081 98.6833 827.114 104.05C823.264 109.3 817.664 113.442 810.314 116.475C812.764 119.508 815.331 123.008 818.014 126.975C820.698 130.825 823.323 134.908 825.889 139.225C828.573 143.425 831.139 147.858 833.589 152.525C836.039 157.075 838.314 161.567 840.414 166H809.789C807.573 162.033 805.298 158.008 802.964 153.925C800.748 149.842 798.414 145.875 795.964 142.025C793.631 138.175 791.298 134.558 788.964 131.175C786.631 127.675 784.298 124.525 781.964 121.725H768.489V166H741.189V46.475C747.139 45.3083 753.264 44.4917 759.564 44.025C765.981 43.5583 771.698 43.325 776.714 43.325ZM778.289 66.6C776.306 66.6 774.498 66.6583 772.864 66.775C771.348 66.8917 769.889 67.0083 768.489 67.125V100.025H776.189C786.456 100.025 793.806 98.7417 798.239 96.175C802.673 93.6083 804.889 89.2333 804.889 83.05C804.889 77.1 802.614 72.9 798.064 70.45C793.631 67.8833 787.039 66.6 778.289 66.6ZM944.582 166C943.299 161.8 941.84 157.483 940.207 153.05C938.69 148.617 937.174 144.183 935.657 139.75H888.407C886.89 144.183 885.315 148.617 883.682 153.05C882.165 157.483 880.765 161.8 879.482 166H851.132C855.682 152.933 859.999 140.858 864.082 129.775C868.165 118.692 872.132 108.25 875.982 98.45C879.949 88.65 883.799 79.375 887.532 70.625C891.382 61.7583 895.349 53.125 899.432 44.725H925.507C929.474 53.125 933.382 61.7583 937.232 70.625C941.082 79.375 944.932 88.65 948.782 98.45C952.749 108.25 956.774 118.692 960.857 129.775C964.94 140.858 969.257 152.933 973.807 166H944.582ZM911.857 72.2C911.274 73.95 910.399 76.3417 909.232 79.375C908.065 82.4083 906.724 85.9083 905.207 89.875C903.69 93.8417 901.999 98.2167 900.132 103C898.382 107.783 896.574 112.8 894.707 118.05H929.182C927.315 112.8 925.507 107.783 923.757 103C922.007 98.2167 920.315 93.8417 918.682 89.875C917.165 85.9083 915.824 82.4083 914.657 79.375C913.49 76.3417 912.557 73.95 911.857 72.2ZM1044.21 65.725C1031.49 65.725 1022.28 69.2833 1016.56 76.4C1010.96 83.4 1008.16 93.025 1008.16 105.275C1008.16 111.225 1008.86 116.65 1010.26 121.55C1011.66 126.333 1013.76 130.475 1016.56 133.975C1019.36 137.475 1022.86 140.217 1027.06 142.2C1031.26 144.067 1036.16 145 1041.76 145C1044.79 145 1047.36 144.942 1049.46 144.825C1051.68 144.708 1053.6 144.475 1055.24 144.125V101.95H1082.54V161.975C1079.27 163.258 1074.02 164.6 1066.79 166C1059.55 167.517 1050.63 168.275 1040.01 168.275C1030.91 168.275 1022.63 166.875 1015.16 164.075C1007.81 161.275 1001.51 157.192 996.262 151.825C991.012 146.458 986.928 139.867 984.012 132.05C981.212 124.233 979.812 115.308 979.812 105.275C979.812 95.125 981.387 86.1417 984.537 78.325C987.687 70.5083 992.003 63.9167 997.487 58.55C1002.97 53.0667 1009.39 48.925 1016.74 46.125C1024.2 43.325 1032.14 41.925 1040.54 41.925C1046.25 41.925 1051.39 42.3333 1055.94 43.15C1060.6 43.85 1064.57 44.725 1067.84 45.775C1071.22 46.7083 1073.96 47.7 1076.06 48.75C1078.28 49.8 1079.85 50.6167 1080.79 51.2L1072.91 73.075C1069.18 71.0917 1064.86 69.4 1059.96 68C1055.18 66.4833 1049.93 65.725 1044.21 65.725Z" fill="black"/>
<path opacity="0.15" d="M441.299 182.55C441.299 184.946 448.6 187.243 461.595 188.937C474.591 190.631 492.217 191.582 510.596 191.582C528.975 191.582 546.601 190.631 559.596 188.937C572.592 187.243 579.893 184.946 579.893 182.55C579.893 180.155 572.592 177.857 559.596 176.164C546.601 174.47 528.975 173.518 510.596 173.518C492.217 173.518 474.591 174.47 461.595 176.164C448.6 177.857 441.299 180.155 441.299 182.55Z" fill="#45413C"/>
<path d="M529.236 47.4921H491.955C457.364 47.4921 429.23 73.0894 429.23 107.757C429.23 146.307 460.631 180.052 499.065 180.052H522.126C560.56 180.052 592 146.307 592 107.757C591.961 73.0894 563.866 47.4921 529.236 47.4921Z" fill="#6DD627"/>
<path d="M522.126 159.451H499.066C464.052 159.451 435.188 131.702 429.884 97.9563C429.313 101.257 429.017 104.6 429 107.949C429.231 146.307 460.631 180.052 499.066 180.052H522.126C560.561 180.052 592 146.307 592 107.757C591.983 104.407 591.687 101.065 591.116 97.7642C585.966 131.702 557.102 159.451 522.126 159.451Z" fill="#6DD627"/>
<path d="M529.236 47.4921H491.955C457.364 47.4921 429.23 73.0894 429.23 107.757C429.23 146.307 460.631 180.052 499.065 180.052H522.126C560.56 180.052 592 146.307 592 107.757C591.961 73.0894 563.866 47.4921 529.236 47.4921Z" stroke="#45413C" stroke-linecap="round" stroke-linejoin="round"/>
<path d="M511.326 72.1669C523.069 75.3281 534.275 80.2248 544.572 86.6951C545.064 87.0016 545.635 87.1588 546.215 87.1475C546.795 87.1363 547.359 86.957 547.839 86.6316C548.319 86.3061 548.694 85.8484 548.919 85.314C549.144 84.7795 549.21 84.1912 549.107 83.6203C547.961 75.3491 543.965 67.7371 537.807 62.0971C537.443 61.8034 537.154 61.4264 536.966 60.9978C536.778 60.5692 536.695 60.1016 536.725 59.6344C536.755 59.1673 536.897 58.7142 537.139 58.3133C537.381 57.9125 537.716 57.5757 538.115 57.3313C543.136 54.8313 548.497 53.0831 554.027 52.1426C554.64 52.0255 555.201 51.72 555.632 51.2686C556.063 50.8173 556.343 50.2426 556.432 49.6248C556.521 49.007 556.414 48.3768 556.128 47.8223C555.841 47.2677 555.389 46.8164 554.834 46.5312C547.796 42.6783 539.757 41.0438 531.773 41.8422C524.61 42.5753 517.932 45.7989 512.902 50.9512C512.615 51.2535 512.269 51.4943 511.886 51.6588C511.503 51.8233 511.09 51.9082 510.673 51.9082C510.256 51.9082 509.843 51.8233 509.46 51.6588C509.077 51.4943 508.731 51.2535 508.444 50.9512C503.417 45.7262 496.706 42.4455 489.495 41.6885C481.512 40.89 473.473 42.5246 466.435 46.3775C465.88 46.6626 465.427 47.114 465.141 47.6685C464.854 48.2231 464.748 48.8532 464.837 49.4711C464.926 50.0889 465.205 50.6635 465.637 51.1149C466.068 51.5663 466.629 51.8718 467.242 51.9889C472.772 52.9293 478.133 54.6776 483.154 57.1775C483.553 57.422 483.888 57.7588 484.13 58.1596C484.372 58.5604 484.514 59.0135 484.544 59.4807C484.574 59.9479 484.491 60.4155 484.303 60.8441C484.114 61.2726 483.826 61.6497 483.461 61.9434C477.272 67.6226 473.273 75.2943 472.162 83.6203C472.059 84.1912 472.124 84.7795 472.349 85.314C472.575 85.8484 472.95 86.3061 473.43 86.6316C473.91 86.957 474.474 87.1363 475.054 87.1475C475.634 87.1588 476.205 87.0016 476.697 86.6951C486.994 80.2248 498.199 75.3281 509.943 72.1669C510.398 72.0631 510.871 72.0631 511.326 72.1669Z" fill="#363333"/>
<path d="M467.165 52.1426C468.626 52.4117 470.201 52.796 471.777 53.1804C477.404 50.9686 483.49 50.1766 489.496 50.8743C496.658 51.6073 503.337 54.831 508.367 59.9832C508.654 60.2856 509 60.5264 509.383 60.6909C509.766 60.8554 510.179 60.9403 510.596 60.9403C511.013 60.9403 511.426 60.8554 511.809 60.6909C512.192 60.5264 512.538 60.2856 512.825 59.9832C517.855 54.831 524.533 51.6073 531.696 50.8743C537.702 50.1766 543.787 50.9686 549.415 53.1804C550.99 52.796 552.566 52.4117 554.027 52.1426C554.64 52.0255 555.201 51.72 555.632 51.2686C556.063 50.8173 556.343 50.2426 556.432 49.6248C556.521 49.007 556.414 48.3768 556.128 47.8223C555.842 47.2677 555.389 46.8164 554.834 46.5312C547.796 42.6783 539.757 41.0438 531.773 41.8422C524.61 42.5753 517.932 45.7989 512.902 50.9512C512.615 51.2535 512.269 51.4943 511.886 51.6588C511.503 51.8233 511.09 51.9082 510.673 51.9082C510.256 51.9082 509.843 51.8233 509.46 51.6588C509.077 51.4943 508.731 51.2535 508.444 50.9512C503.417 45.7262 496.706 42.4455 489.496 41.6885C481.512 40.89 473.473 42.5246 466.435 46.3775C465.815 46.6215 465.293 47.0653 464.953 47.6388C464.613 48.2123 464.474 48.8827 464.558 49.544C464.642 50.2054 464.944 50.8199 465.416 51.2906C465.888 51.7612 466.504 52.061 467.165 52.1426Z" fill="#4F4C4C"/>
<path d="M511.326 72.1669C523.069 75.3281 534.275 80.2248 544.572 86.6951C545.064 87.0016 545.635 87.1588 546.215 87.1475C546.795 87.1363 547.359 86.957 547.839 86.6316C548.319 86.3061 548.694 85.8484 548.919 85.314C549.144 84.7795 549.21 84.1912 549.107 83.6203C547.961 75.3491 543.965 67.7371 537.807 62.0971C537.443 61.8034 537.154 61.4264 536.966 60.9978C536.778 60.5692 536.695 60.1016 536.725 59.6344C536.755 59.1673 536.897 58.7142 537.139 58.3133C537.381 57.9125 537.716 57.5757 538.115 57.3313C543.136 54.8313 548.497 53.0831 554.027 52.1426C554.64 52.0255 555.201 51.72 555.632 51.2686C556.063 50.8173 556.343 50.2426 556.432 49.6248C556.521 49.007 556.414 48.3768 556.128 47.8223C555.841 47.2677 555.389 46.8164 554.834 46.5312C547.796 42.6783 539.757 41.0438 531.773 41.8422C524.61 42.5753 517.932 45.7989 512.902 50.9512C512.615 51.2535 512.269 51.4943 511.886 51.6588C511.503 51.8233 511.09 51.9082 510.673 51.9082C510.256 51.9082 509.843 51.8233 509.46 51.6588C509.077 51.4943 508.731 51.2535 508.444 50.9512C503.417 45.7262 496.706 42.4455 489.495 41.6885C481.512 40.89 473.473 42.5246 466.435 46.3775C465.88 46.6626 465.427 47.114 465.141 47.6685C464.854 48.2231 464.748 48.8532 464.837 49.4711C464.926 50.0889 465.205 50.6635 465.637 51.1149C466.068 51.5663 466.629 51.8718 467.242 51.9889C472.772 52.9293 478.133 54.6776 483.154 57.1775C483.553 57.422 483.888 57.7588 484.13 58.1596C484.372 58.5604 484.514 59.0135 484.544 59.4807C484.574 59.9479 484.491 60.4155 484.303 60.8441C484.114 61.2726 483.826 61.6497 483.461 61.9434C477.272 67.6226 473.273 75.2943 472.162 83.6203C472.059 84.1912 472.124 84.7795 472.349 85.314C472.575 85.8484 472.95 86.3061 473.43 86.6316C473.91 86.957 474.474 87.1363 475.054 87.1475C475.634 87.1588 476.205 87.0016 476.697 86.6951C486.994 80.2248 498.199 75.3281 509.943 72.1669C510.398 72.0631 510.871 72.0631 511.326 72.1669Z" stroke="#45413C" stroke-linecap="round" stroke-linejoin="round"/>
<path d="M504.562 61.4437C504.266 51.9874 507.515 42.762 513.671 35.5774C514.205 35.0604 514.838 34.6549 515.53 34.3844C516.223 34.1138 516.963 33.9837 517.706 34.0016C519.035 33.9857 520.35 34.275 521.55 34.8472C522.132 35.1185 522.645 35.5191 523.05 36.0184C523.455 36.5178 523.74 37.1028 523.884 37.7291C524.029 38.3553 524.029 39.0062 523.884 39.6324C523.739 40.2585 523.453 40.8434 523.049 41.3426C519.258 47.5786 516.518 54.3955 514.939 61.5206" fill="#4F4C4C"/>
<path d="M504.562 61.4437C504.266 51.9874 507.515 42.762 513.671 35.5774C514.205 35.0604 514.838 34.6549 515.53 34.3844C516.223 34.1138 516.963 33.9837 517.706 34.0016C519.035 33.9857 520.35 34.275 521.55 34.8472C522.132 35.1185 522.645 35.5191 523.05 36.0184C523.455 36.5178 523.74 37.1028 523.884 37.7291C524.029 38.3553 524.029 39.0062 523.884 39.6324C523.739 40.2585 523.453 40.8434 523.049 41.3426C519.258 47.5786 516.518 54.3955 514.939 61.5206" stroke="#45413C" stroke-linecap="round" stroke-linejoin="round"/>
<path d="M539.874 97.0034L539.878 97.0033C542.003 97.0104 544.093 97.5554 545.951 98.5877C547.671 99.5433 549.142 100.888 550.247 102.511C551.975 101.599 553.916 101.035 556.005 101.035H556.007C558.132 101.042 560.222 101.587 562.08 102.62C563.8 103.575 565.271 104.92 566.376 106.543C568.104 105.631 570.045 105.067 572.134 105.067C579.043 105.067 584.73 110.754 584.73 117.663V153.951C584.73 169.77 571.825 182.674 556.005 182.674H534.711H534.711V182.174C530.704 182.177 526.743 181.323 523.092 179.672C519.442 178.021 516.185 175.609 513.542 172.599L539.874 97.0034ZM539.874 97.0034C537.749 97.0104 535.659 97.5554 533.801 98.5877C532.082 99.5426 530.612 100.886 529.508 102.508C527.739 101.558 525.763 101.052 523.751 101.035V101.035H523.747C516.838 101.035 511.15 106.722 511.15 113.631V128.2L502.813 138.903L502.811 138.904C497.514 145.756 497.873 155.583 503.589 162.091L503.59 162.092L513.166 172.928C513.166 172.929 513.166 172.929 513.166 172.929L539.874 97.0034ZM543.408 121.695V122.195H543.908H551.973H552.473V121.695V113.631C552.473 111.625 553.999 110.099 556.005 110.099C558.011 110.099 559.537 111.625 559.537 113.631V121.695V122.195H560.037H568.102H568.602V121.695V117.663C568.602 115.657 570.128 114.131 572.134 114.131C574.14 114.131 575.666 115.657 575.666 117.663V153.951C575.666 164.855 566.91 173.611 556.005 173.611H534.711L534.709 173.611C531.92 173.621 529.162 173.033 526.619 171.889C524.076 170.744 521.807 169.069 519.966 166.975C519.966 166.975 519.965 166.975 519.965 166.974L510.39 156.017L510.387 156.013C508.992 154.449 508.192 152.445 508.126 150.351C508.061 148.257 508.734 146.207 510.028 144.559L510.028 144.559L510.032 144.553L511.15 143.083V145.887V146.387H511.65H519.715H520.215V145.887V113.631C520.215 111.625 521.741 110.099 523.747 110.099C525.753 110.099 527.279 111.625 527.279 113.631V121.695V122.195H527.779H535.844H536.344V121.695V109.599C536.344 107.593 537.87 106.067 539.876 106.067C541.882 106.067 543.408 107.593 543.408 109.599V121.695Z" fill="#F9F6F6" stroke="black"/>
<path d="M539.543 103.383L520.727 108.087L514.847 130.431L503.087 149.247L525.431 177.471H561.887L578.35 163.359L575.998 112.791L561.887 108.087L539.543 103.383Z" fill="#F9F6F6"/>
<path d="M528.959 102.207V130.431" stroke="black"/>
<path d="M550.127 101.619V104.559V108.087V112.791V130.431" stroke="black"/>
<path d="M566.591 104.559V130.431" stroke="black"/>
<path d="M501.911 112.791H453.696M501.911 112.791H453.696" stroke="#F9F9F9" stroke-opacity="0.8"/>
<path d="M477.215 123.375H429M477.215 123.375H429" stroke="#F9F9F9" stroke-opacity="0.8"/>
<path d="M500.735 135.135H452.52M500.735 135.135H452.52" stroke="#F9F9F9" stroke-opacity="0.8"/>
<path d="M488.975 151.599H440.76M488.975 151.599H440.76" stroke="#F9F9F9" stroke-opacity="0.8"/>
<path d="M496.031 168.063H447.816M496.031 168.063H447.816" stroke="#F9F9F9" stroke-opacity="0.8"/>
</svg>
